<svg width="300px" height="300px" viewBox="0 0 300 300">
<g id="github">
	<path id="polvo" d="M388.9,190.8c13.2-27.3-2.5-65.3-2.5-65.3c-26.6-3.8-67.5,25.3-67.5,25.3c-18.8-5.7-48.7-7.6-58.5-8.1l0-0.1
		c0,0-0.6,0-1.6,0.1c-1,0-1.6-0.1-1.6-0.1l0,0.1c-9.8,0.5-39.7,2.4-58.5,8.1c0,0-40.9-29.1-67.5-25.3c0,0-15.7,38-2.5,65.3
		c0,0-42.2,36.8-17.8,117.4c0,0,16.7,64.6,107.6,70.4c0,0-20.8,12.8-20.8,44.5l0.1,42.3c0,0,47.4,8.3,61,6.2c13.6,2.1,61-6.2,61-6.2
		l0.1-42.3c0-31.7-20.8-44.5-20.8-44.5c90.9-5.7,107.6-70.4,107.6-70.4C431.1,227.6,388.9,190.8,388.9,190.8z"/>
	<path id="tentaculo" d="M203,431c-0.4-0.2,0-19.2,0-20.7c0-0.8-28.2-7.1-30.8-8.1c-20.5-7.3-36-16.5-45.7-36.3
		c-5.3-10.9-9.4-23-11.5-35c0,0-9.3,28,6.7,55.3C137.2,412.8,174,427.4,203,431z"/>
</g>
<g id="borda">
	<path d="M56.3,327.9c-14.5-41.2-15.6-84.3-5.3-124.1l-39.5-16c-14,50-12.9,104.6,6.1,156.5L56.3,327.9z"/>
	<path d="M69.2,156.9c19.6-36.8,50-68.2,89.1-88.7l-16.7-39.3C91.7,54.1,53.4,94,29.7,140.9L69.2,156.9z"/>
	<path d="M184.9,11.5L201.7,51c36.2-9.9,73.4-9.8,108.2-1l17.5-39.3C281.9-2.2,232.6-2.7,184.9,11.5z"/>
	<path d="M138.6,434.3c-22.3-15-42-34.3-57.6-57.4l-39.1,16.6c20.7,32.7,48.1,59.5,79.6,79.2L138.6,434.3z"/>
	<path d="M361,70.2c36.7,20.3,67.7,51.4,87.7,91.3l38.7-16.4c-24.3-50.3-63.3-89.2-109.5-113.8L361,70.2z"/>
	<path d="M466.8,213.3c7.3,34.7,5.6,70-3.8,102.8l38.7,15.6c13.2-42.9,15.3-89.4,4.3-135L466.8,213.3z"/>
	<path d="M443.5,362.5c-17.9,31.6-43.9,58.8-76.5,78.2l16.2,38.3c43-24.2,76.7-59.6,99-100.8L443.5,362.5z"/>
	<path d="M324.4,460c-44.5,14.7-90.9,13.9-132.9,0.2L175,498.3c52.2,17.8,110.2,18.9,165.6-0.2L324.4,460z"/>
</g>
</svg>
