<svg style="position: absolute; width: 0; height: 0; overflow: hidden;" version="1.1" xmlns="http://www.w3.org/2000/svg" xmlns:xlink="http://www.w3.org/1999/xlink">
<defs>
<symbol id="icon-add_database" viewBox="0 0 32 32">
<title>add_database</title>
<path class="path1" fill="#d1c4e9" d="M25.333 4.667h-18.667c-0.733 0-1.333 0.6-1.333 1.333v4c0 0.733 0.6 1.333 1.333 1.333h18.667c0.733 0 1.333-0.6 1.333-1.333v-4c0-0.733-0.6-1.333-1.333-1.333z"></path>
<path class="path2" fill="#d1c4e9" d="M25.333 12.667h-18.667c-0.733 0-1.333 0.6-1.333 1.333v4c0 0.733 0.6 1.333 1.333 1.333h18.667c0.733 0 1.333-0.6 1.333-1.333v-4c0-0.733-0.6-1.333-1.333-1.333z"></path>
<path class="path3" fill="#d1c4e9" d="M25.333 20.667h-18.667c-0.733 0-1.333 0.6-1.333 1.333v4c0 0.733 0.6 1.333 1.333 1.333h18.667c0.733 0 1.333-0.6 1.333-1.333v-4c0-0.733-0.6-1.333-1.333-1.333z"></path>
<path class="path4" fill="#43a047" d="M32 25.333c0 3.682-2.985 6.667-6.667 6.667s-6.667-2.985-6.667-6.667c0-3.682 2.985-6.667 6.667-6.667s6.667 2.985 6.667 6.667z"></path>
<path class="path5" fill="#fff" d="M24 21.333h2.667v8h-2.667v-8z"></path>
<path class="path6" fill="#fff" d="M21.333 24h8v2.667h-8v-2.667z"></path>
</symbol>
<symbol id="icon-add_image" viewBox="0 0 32 32">
<title>add_image</title>
<path class="path1" fill="#8cbcd6" d="M26.667 27.333h-21.333c-1.467 0-2.667-1.2-2.667-2.667v-17.333c0-1.467 1.2-2.667 2.667-2.667h21.333c1.467 0 2.667 1.2 2.667 2.667v17.333c0 1.467-1.2 2.667-2.667 2.667z"></path>
<path class="path2" fill="#b3ddf5" d="M25.333 10.667c0 1.105-0.895 2-2 2s-2-0.895-2-2c0-1.105 0.895-2 2-2s2 0.895 2 2z"></path>
<path class="path3" fill="#9ac9e3" d="M13.333 10.667l-7.333 10.667h14.667z"></path>
<path class="path4" fill="#b3ddf5" d="M20.667 14.667l-5.333 6.667h10.667z"></path>
<path class="path5" fill="#43a047" d="M32 25.333c0 3.682-2.985 6.667-6.667 6.667s-6.667-2.985-6.667-6.667c0-3.682 2.985-6.667 6.667-6.667s6.667 2.985 6.667 6.667z"></path>
<path class="path6" fill="#fff" d="M24 21.333h2.667v8h-2.667v-8z"></path>
<path class="path7" fill="#fff" d="M21.333 24h8v2.667h-8v-2.667z"></path>
</symbol>
<symbol id="icon-add_row" viewBox="0 0 32 32">
<title>add_row</title>
<path class="path1" fill="#90caf9" d="M28.667 20v-8c0-1.467-1.2-2.667-2.667-2.667h-20c-1.467 0-2.667 1.2-2.667 2.667v8c0 1.467 1.2 2.667 2.667 2.667h20c1.467 0 2.667-1.2 2.667-2.667zM6 12h20v8h-20v-8z"></path>
<path class="path2" fill="#43a047" d="M32 25.333c0 3.682-2.985 6.667-6.667 6.667s-6.667-2.985-6.667-6.667c0-3.682 2.985-6.667 6.667-6.667s6.667 2.985 6.667 6.667z"></path>
<path class="path3" fill="#fff" d="M21.333 24h8v2.667h-8v-2.667z"></path>
<path class="path4" fill="#fff" d="M24 21.333h2.667v8h-2.667v-8z"></path>
</symbol>
<symbol id="icon-address_book" viewBox="0 0 32 32">
<title>address_book</title>
<path class="path1" fill="#673ab7" d="M25.333 29.333h-17.333v-26.667h17.333c1.467 0 2.667 1.2 2.667 2.667v21.333c0 1.467-1.2 2.667-2.667 2.667z"></path>
<path class="path2" fill="#311b92" d="M6.667 2.667h1.333v26.667h-1.333c-1.467 0-2.667-1.2-2.667-2.667v-21.333c0-1.467 1.2-2.667 2.667-2.667z"></path>
<path class="path3" fill="#fff" d="M24 16.133c-0.067 3.2-2.067 4.6-3.533 4.467-0.4-0.067-1.4-0.067-1.933-1.067-0.533 0.667-1.2 1.067-2.067 1.067-1.733 0-2.2-1.667-2.267-2.067-0.067-0.467-0.133-0.933-0.067-1.467 0.067-0.667 0.733-4.333 3.8-4.333 1.467 0 2.333 0.733 2.467 0.867l-0.4 4.533c0 0.2-0.133 1.067 0.733 1.067 1.4 0 1.6-2.6 1.6-3.067 0.067-0.8 0.2-5.467-4.667-5.467-4.6 0-5.267 4.933-5.333 6.133-0.333 5.667 4 5.667 4.8 5.667 1.133 0 2.467-0.467 2.6-0.533l0.267 1.333c-0.2 0.133-1.333 0.733-2.933 0.733-1.467 0-6.733-0.267-6.533-7.2 0.2-1.4 1.067-7.467 7.2-7.467s6.267 5.4 6.267 6.8zM16.067 17c-0.067 0.667 0 1.2 0.133 1.533s0.4 0.533 0.8 0.533c0.067 0 0.2 0 0.267-0.067 0.133-0.067 0.2-0.067 0.333-0.2 0.133-0.067 0.2-0.2 0.333-0.4 0.133-0.133 0.2-0.4 0.267-0.667l0.333-3.6c-0.133-0.067-0.333-0.067-0.467-0.067-0.333 0-0.6 0.067-0.8 0.2s-0.4 0.333-0.6 0.533c-0.133 0.267-0.267 0.533-0.4 0.867s-0.133 0.867-0.2 1.333z"></path>
</symbol>
<symbol id="icon-advance" viewBox="0 0 32 32">
<title>advance</title>
<path class="path1" fill="#1565c0" d="M30.733 16l-8.733 7.333v-14.667z"></path>
<path class="path2" fill="#1565c0" d="M6.667 13.333h2.667v5.333h-2.667v-5.333z"></path>
<path class="path3" fill="#1565c0" d="M2.667 13.333h2.667v5.333h-2.667v-5.333z"></path>
<path class="path4" fill="#1565c0" d="M10.667 13.333h2.667v5.333h-2.667v-5.333z"></path>
<path class="path5" fill="#1565c0" d="M14.667 13.333h9.333v5.333h-9.333v-5.333z"></path>
</symbol>
<symbol id="icon-advertising" viewBox="0 0 32 32">
<title>advertising</title>
<path class="path1" fill="#90caf9" d="M11.6 22h-1.6v-2.667h2.667l0.267 1c0.2 0.867-0.467 1.667-1.333 1.667z"></path>
<path class="path2" fill="#90caf9" d="M24.667 24c0 0-7.867-4.667-12-4.667v-9.333c3.867 0 12-4.667 12-4.667v18.667z"></path>
<path class="path3" fill="#283593" d="M9.333 14.667c0 1.841-1.492 3.333-3.333 3.333s-3.333-1.492-3.333-3.333c0-1.841 1.492-3.333 3.333-3.333s3.333 1.492 3.333 3.333z"></path>
<path class="path4" fill="#283593" d="M26.667 12.667h-2v4h2c1.133 0 2-0.867 2-2s-0.867-2-2-2z"></path>
<path class="path5" fill="#283593" d="M12.4 27.467c-0.6 0.4-1.667 0.8-3.067 0.933-0.4 0.067-0.8-0.2-0.933-0.667l-2.933-9.133c0 0 5.867-4.133 5.867 0.733 0 3.667 1 5.6 1.467 6.333 0.333 0.467 0.333 1.067 0 1.533-0.133 0.133-0.267 0.2-0.4 0.267z"></path>
<path class="path6" fill="#3f51b5" d="M6 19.333h6.667v-9.333h-6.667c-0.733 0-1.333 0.6-1.333 1.333v6.667c0 0.733 0.6 1.333 1.333 1.333z"></path>
<path class="path7" fill="#42a5f5" d="M25.333 25.333v0c-0.733 0-1.333-0.6-1.333-1.333v-18.667c0-0.733 0.6-1.333 1.333-1.333v0c0.733 0 1.333 0.6 1.333 1.333v18.667c0 0.733-0.6 1.333-1.333 1.333z"></path>
</symbol>
<symbol id="icon-alarm_clock" viewBox="0 0 32 32">
<title>alarm_clock</title>
<path class="path1" fill="#37474f" d="M25.667 29.733l-2.667-2.667 1.4-1.4 2.667 2.667c0.4 0.4 0.4 1 0 1.4v0c-0.333 0.333-1 0.333-1.4 0z"></path>
<path class="path2" fill="#37474f" d="M6.333 29.733l2.667-2.667-1.4-1.4-2.667 2.667c-0.4 0.4-0.4 1 0 1.4v0c0.333 0.333 1 0.333 1.4 0z"></path>
<path class="path3" fill="#c62828" d="M29.333 16c0 7.364-5.97 13.333-13.333 13.333s-13.333-5.97-13.333-13.333c0-7.364 5.97-13.333 13.333-13.333s13.333 5.97 13.333 13.333z"></path>
<path class="path4" fill="#eee" d="M26.667 16c0 5.891-4.776 10.667-10.667 10.667s-10.667-4.776-10.667-10.667c0-5.891 4.776-10.667 10.667-10.667s10.667 4.776 10.667 10.667z"></path>
<path class="path5" fill="#e53935" d="M10.064 22.32l-0.377-0.377 6.127-6.127 0.377 0.377-6.127 6.127z"></path>
<path class="path6" fill="#000" d="M15.333 7.333h1.333v8.667h-1.333v-8.667z"></path>
<path class="path7" fill="#000" d="M20.857 19.769l-1.084 1.084-4.336-4.336 1.084-1.084 4.336 4.336z"></path>
<path class="path8" fill="#000" d="M17.333 16c0 0.736-0.597 1.333-1.333 1.333s-1.333-0.597-1.333-1.333c0-0.736 0.597-1.333 1.333-1.333s1.333 0.597 1.333 1.333z"></path>
<path class="path9" fill="#c62828" d="M16.667 16c0 0.368-0.298 0.667-0.667 0.667s-0.667-0.298-0.667-0.667c0-0.368 0.298-0.667 0.667-0.667s0.667 0.298 0.667 0.667z"></path>
<path class="path10" fill="#37474f" d="M14.667 0.667h2.667v2h-2.667v-2z"></path>
<path class="path11" fill="#37474f" d="M29.6 10.8c1.667-2.333 1.4-5.6-0.667-7.667s-5.333-2.333-7.667-0.667l8.333 8.333z"></path>
<path class="path12" fill="#37474f" d="M2.4 10.8c-1.667-2.333-1.4-5.6 0.667-7.667s5.333-2.333 7.667-0.667l-8.333 8.333z"></path>
</symbol>
<symbol id="icon-alphabetical_sorting_az" viewBox="0 0 32 32">
<title>alphabetical_sorting_az</title>
<path class="path1" fill="#546e7a" d="M25.333 22v-18.667h-2.667v18.667h-4l5.333 6.667 5.333-6.667z"></path>
<path class="path2" fill="#2196f3" d="M11.2 11.467h-3.533l-0.733 2h-2.333l3.8-10.133h1.933l3.8 10.133h-2.133l-0.8-2zM8.133 9.667h2.533l-1.267-3.8-1.267 3.8z"></path>
<path class="path3" fill="#2196f3" d="M8.267 27h5.067v1.667h-7.733v-1.267l5.067-7.2h-5.067v-1.667h7.6v1.133l-4.933 7.333z"></path>
</symbol>
<symbol id="icon-alphabetical_sorting_za" viewBox="0 0 32 32">
<title>alphabetical_sorting_za</title>
<path class="path1" fill="#2196f3" d="M11.2 26.667h-3.533l-0.733 2h-2.333l3.8-10.133h1.933l3.733 10.133h-2.133l-0.733-2zM8.133 24.867h2.533l-1.267-3.8-1.267 3.8z"></path>
<path class="path2" fill="#2196f3" d="M8.267 11.8h5.067v1.667h-7.733v-1.267l5.067-7.2h-5.067v-1.667h7.6v1.133l-4.933 7.333z"></path>
<path class="path3" fill="#546e7a" d="M25.333 22v-18.667h-2.667v18.667h-4l5.333 6.667 5.333-6.667z"></path>
</symbol>
</defs>
</svg>
