<svg xmlns="http://www.w3.org/2000/svg" xmlns:xlink="http://www.w3.org/1999/xlink"><symbol viewBox="0 0 48 48" id="SVG--pie_chart"><path fill="#00BCD4" d="M24 6C14.1 6 6 14.1 6 24s8.1 18 18 18c5.2 0 9.9-2.2 13.1-5.7L24 24V6z"/><path fill="#448AFF" d="M42 24c0-9.9-8.1-18-18-18v18h18z"/><path fill="#3F51B5" d="M24 24l13.1 12.3c3-3.2 4.9-7.5 4.9-12.3H24z"/></symbol><symbol viewBox="0 0 48 48" id="SVG--podium_with_audience"><path fill="#B0BEC5" d="M41 12H7l-1 4 5 3-2-3h30l-2 3 5-3z"/><path fill="#78909C" d="M9 16h30l-4 12H13z"/><circle fill="#FFB74D" cx="24" cy="28" r="4"/><circle fill="#FFB74D" cx="36" cy="28" r="4"/><circle fill="#FFB74D" cx="12" cy="28" r="4"/><circle fill="#FFB74D" cx="18" cy="37" r="5"/><circle fill="#FFB74D" cx="30" cy="37" r="5"/></symbol><symbol viewBox="0 0 48 48" id="SVG--podium_without_speaker"><path fill="#B0BEC5" d="M43 16H5l-1 4 5 3-2-3h34l-2 3 5-3z"/><path fill="#78909C" d="M7 20h34l-4 16H11z"/></symbol><symbol viewBox="0 0 48 48" id="SVG--print"><path fill="#424242" d="M9 11h30v3H9z"/><path fill="#616161" d="M4 25h40v-7c0-2.2-1.8-4-4-4H8c-2.2 0-4 1.8-4 4v7z"/><path fill="#424242" d="M8 36h32c2.2 0 4-1.8 4-4v-8H4v8c0 2.2 1.8 4 4 4z"/><circle fill="#00E676" cx="40" cy="18" r="1"/><path fill="#90CAF9" d="M11 4h26v10H11z"/><path fill="#242424" d="M37.5 31h-27c-.8 0-1.5-.7-1.5-1.5s.7-1.5 1.5-1.5h27c.8 0 1.5.7 1.5 1.5s-.7 1.5-1.5 1.5z"/><path fill="#90CAF9" d="M11 31h26v11H11z"/><path fill="#42A5F5" d="M11 29h26v2H11z"/><g fill="#1976D2"><path d="M16 33h17v2H16zM16 37h13v2H16z"/></g></symbol><symbol viewBox="0 0 0 0" id="icons"/></svg>