<?xml version="1.0" encoding="utf-8"?>
<!-- Generated by IcoMoon.io -->
<!DOCTYPE svg PUBLIC "-//W3C//DTD SVG 1.1//EN" "http://www.w3.org/Graphics/SVG/1.1/DTD/svg11.dtd">
<svg version="1.1" xmlns="http://www.w3.org/2000/svg" xmlns:xlink="http://www.w3.org/1999/xlink" width="32" height="32" viewBox="0 0 32 32">
<path fill="#8cbcd6" d="M26.667 27.333h-21.333c-1.467 0-2.667-1.2-2.667-2.667v-17.333c0-1.467 1.2-2.667 2.667-2.667h21.333c1.467 0 2.667 1.2 2.667 2.667v17.333c0 1.467-1.2 2.667-2.667 2.667z"></path>
<path fill="#b3ddf5" d="M25.333 10.667c0 1.105-0.895 2-2 2s-2-0.895-2-2c0-1.105 0.895-2 2-2s2 0.895 2 2z"></path>
<path fill="#9ac9e3" d="M13.333 10.667l-7.333 10.667h14.667z"></path>
<path fill="#b3ddf5" d="M20.667 14.667l-5.333 6.667h10.667z"></path>
<path fill="#43a047" d="M32 25.333c0 3.682-2.985 6.667-6.667 6.667s-6.667-2.985-6.667-6.667c0-3.682 2.985-6.667 6.667-6.667s6.667 2.985 6.667 6.667z"></path>
<path fill="#fff" d="M24 21.333h2.667v8h-2.667v-8z"></path>
<path fill="#fff" d="M21.333 24h8v2.667h-8v-2.667z"></path>
</svg>
