<?xml version="1.0" encoding="utf-8"?>
<!-- Generated by IcoMoon.io -->
<!DOCTYPE svg PUBLIC "-//W3C//DTD SVG 1.1//EN" "http://www.w3.org/Graphics/SVG/1.1/DTD/svg11.dtd">
<svg version="1.1" xmlns="http://www.w3.org/2000/svg" xmlns:xlink="http://www.w3.org/1999/xlink" width="32" height="32" viewBox="0 0 32 32">
<path fill="#90caf9" d="M28.667 20v-8c0-1.467-1.2-2.667-2.667-2.667h-20c-1.467 0-2.667 1.2-2.667 2.667v8c0 1.467 1.2 2.667 2.667 2.667h20c1.467 0 2.667-1.2 2.667-2.667zM6 12h20v8h-20v-8z"></path>
<path fill="#43a047" d="M32 25.333c0 3.682-2.985 6.667-6.667 6.667s-6.667-2.985-6.667-6.667c0-3.682 2.985-6.667 6.667-6.667s6.667 2.985 6.667 6.667z"></path>
<path fill="#fff" d="M21.333 24h8v2.667h-8v-2.667z"></path>
<path fill="#fff" d="M24 21.333h2.667v8h-2.667v-8z"></path>
</svg>
