<?xml version="1.0" encoding="utf-8"?>
<!-- Generated by IcoMoon.io -->
<!DOCTYPE svg PUBLIC "-//W3C//DTD SVG 1.1//EN" "http://www.w3.org/Graphics/SVG/1.1/DTD/svg11.dtd">
<svg version="1.1" xmlns="http://www.w3.org/2000/svg" xmlns:xlink="http://www.w3.org/1999/xlink" width="32" height="32" viewBox="0 0 32 32">
<path fill="#37474f" d="M25.667 29.733l-2.667-2.667 1.4-1.4 2.667 2.667c0.4 0.4 0.4 1 0 1.4v0c-0.333 0.333-1 0.333-1.4 0z"></path>
<path fill="#37474f" d="M6.333 29.733l2.667-2.667-1.4-1.4-2.667 2.667c-0.4 0.4-0.4 1 0 1.4v0c0.333 0.333 1 0.333 1.4 0z"></path>
<path fill="#c62828" d="M29.333 16c0 7.364-5.97 13.333-13.333 13.333s-13.333-5.97-13.333-13.333c0-7.364 5.97-13.333 13.333-13.333s13.333 5.97 13.333 13.333z"></path>
<path fill="#eee" d="M26.667 16c0 5.891-4.776 10.667-10.667 10.667s-10.667-4.776-10.667-10.667c0-5.891 4.776-10.667 10.667-10.667s10.667 4.776 10.667 10.667z"></path>
<path fill="#e53935" d="M10.064 22.32l-0.377-0.377 6.127-6.127 0.377 0.377-6.127 6.127z"></path>
<path fill="#000" d="M15.333 7.333h1.333v8.667h-1.333v-8.667z"></path>
<path fill="#000" d="M20.857 19.769l-1.084 1.084-4.336-4.336 1.084-1.084 4.336 4.336z"></path>
<path fill="#000" d="M17.333 16c0 0.736-0.597 1.333-1.333 1.333s-1.333-0.597-1.333-1.333c0-0.736 0.597-1.333 1.333-1.333s1.333 0.597 1.333 1.333z"></path>
<path fill="#c62828" d="M16.667 16c0 0.368-0.298 0.667-0.667 0.667s-0.667-0.298-0.667-0.667c0-0.368 0.298-0.667 0.667-0.667s0.667 0.298 0.667 0.667z"></path>
<path fill="#37474f" d="M14.667 0.667h2.667v2h-2.667v-2z"></path>
<path fill="#37474f" d="M29.6 10.8c1.667-2.333 1.4-5.6-0.667-7.667s-5.333-2.333-7.667-0.667l8.333 8.333z"></path>
<path fill="#37474f" d="M2.4 10.8c-1.667-2.333-1.4-5.6 0.667-7.667s5.333-2.333 7.667-0.667l-8.333 8.333z"></path>
</svg>
